<?xml version="1.0" encoding="UTF-8" standalone="no"?>
<!DOCTYPE svg PUBLIC "-//W3C//DTD SVG 1.1//EN"
 "http://www.w3.org/Graphics/SVG/1.1/DTD/svg11.dtd">
<!-- Generated by graphviz version 2.42.3 (20191010.1750)
 -->
<!-- Title: %3 Pages: 1 -->
<svg width="1805pt" height="222pt"
 viewBox="0.00 0.00 1805.00 222.00" xmlns="http://www.w3.org/2000/svg" xmlns:xlink="http://www.w3.org/1999/xlink">
<g id="graph0" class="graph" transform="scale(1 1) rotate(0) translate(72 186)">
<title>%3</title>
<polygon fill="#ffffff" stroke="transparent" points="-72,36 -72,-186 1733,-186 1733,36 -72,36"/>
<!-- /outputs/21 -->
<g id="node1" class="node">
<title>/outputs/21</title>
<polygon fill="#e8e8e8" stroke="#000000" points="54,-146 0,-146 0,-110 54,-110 54,-146"/>
<text text-anchor="start" x="9" y="-125" font-family="Times" font-size="10.00" fill="#000000">Constant</text>
</g>
<!-- /outputs/22 -->
<g id="node2" class="node">
<title>/outputs/22</title>
<polygon fill="#e8e8e8" stroke="#000000" points="148,-146 90,-146 90,-110 148,-110 148,-146"/>
<text text-anchor="start" x="98" y="-125" font-family="Times" font-size="10.00" fill="#000000">Upsample</text>
</g>
<!-- /outputs/21&#45;&gt;/outputs/22 -->
<g id="edge1" class="edge">
<title>/outputs/21&#45;&gt;/outputs/22</title>
<path fill="none" stroke="#000000" d="M54.03,-128C62,-128 70.95,-128 79.56,-128"/>
<polygon fill="#000000" stroke="#000000" points="79.82,-131.5 89.82,-128 79.82,-124.5 79.82,-131.5"/>
</g>
<!-- 4206328852055713538 -->
<g id="node19" class="node">
<title>4206328852055713538</title>
<polygon fill="#e8e8e8" stroke="#000000" points="238,-150 184,-150 184,-106 238,-106 238,-150"/>
<text text-anchor="start" x="201" y="-134" font-family="Times" font-size="10.00" fill="#000000">Slice</text>
<text text-anchor="start" x="215" y="-113" font-family="Times" font-size="10.00" fill="#000000">x2</text>
</g>
<!-- /outputs/22&#45;&gt;4206328852055713538 -->
<g id="edge17" class="edge">
<title>/outputs/22&#45;&gt;4206328852055713538</title>
<path fill="none" stroke="#000000" d="M148.48,-128C156.44,-128 165.21,-128 173.57,-128"/>
<polygon fill="#000000" stroke="#000000" points="173.85,-131.5 183.85,-128 173.85,-124.5 173.85,-131.5"/>
</g>
<!-- /outputs/25 -->
<g id="node3" class="node">
<title>/outputs/25</title>
<polygon fill="#e8e8e8" stroke="#000000" points="238,-88 184,-88 184,-52 238,-52 238,-88"/>
<text text-anchor="start" x="193" y="-67" font-family="Times" font-size="10.00" fill="#000000">Constant</text>
</g>
<!-- /outputs/26 -->
<g id="node4" class="node">
<title>/outputs/26</title>
<polygon fill="#e8e8e8" stroke="#000000" points="328,-117 274,-117 274,-81 328,-81 328,-117"/>
<text text-anchor="start" x="293" y="-96" font-family="Times" font-size="10.00" fill="#000000">Sub</text>
</g>
<!-- /outputs/25&#45;&gt;/outputs/26 -->
<g id="edge2" class="edge">
<title>/outputs/25&#45;&gt;/outputs/26</title>
<path fill="none" stroke="#000000" d="M238.4,-78.7C246.57,-81.39 255.7,-84.4 264.38,-87.26"/>
<polygon fill="#000000" stroke="#000000" points="263.33,-90.6 273.92,-90.41 265.52,-83.95 263.33,-90.6"/>
</g>
<!-- /outputs/28 -->
<g id="node6" class="node">
<title>/outputs/28</title>
<polygon fill="#e8e8e8" stroke="#000000" points="418,-90 364,-90 364,-54 418,-54 418,-90"/>
<text text-anchor="start" x="383" y="-69" font-family="Times" font-size="10.00" fill="#000000">Div</text>
</g>
<!-- /outputs/26&#45;&gt;/outputs/28 -->
<g id="edge3" class="edge">
<title>/outputs/26&#45;&gt;/outputs/28</title>
<path fill="none" stroke="#000000" d="M328.4,-90.9C336.48,-88.42 345.51,-85.65 354.1,-83.01"/>
<polygon fill="#000000" stroke="#000000" points="355.39,-86.28 363.92,-80 353.33,-79.59 355.39,-86.28"/>
</g>
<!-- /outputs/27 -->
<g id="node5" class="node">
<title>/outputs/27</title>
<polygon fill="#e8e8e8" stroke="#000000" points="328,-63 274,-63 274,-27 328,-27 328,-63"/>
<text text-anchor="start" x="283" y="-42" font-family="Times" font-size="10.00" fill="#000000">Constant</text>
</g>
<!-- /outputs/27&#45;&gt;/outputs/28 -->
<g id="edge4" class="edge">
<title>/outputs/27&#45;&gt;/outputs/28</title>
<path fill="none" stroke="#000000" d="M328.4,-53.1C336.48,-55.58 345.51,-58.35 354.1,-60.99"/>
<polygon fill="#000000" stroke="#000000" points="353.33,-64.41 363.92,-64 355.39,-57.72 353.33,-64.41"/>
</g>
<!-- /outputs/29 -->
<g id="node7" class="node">
<title>/outputs/29</title>
<polygon fill="#e8e8e8" stroke="#000000" points="508,-90 454,-90 454,-54 508,-54 508,-90"/>
<text text-anchor="start" x="466" y="-69" font-family="Times" font-size="10.00" fill="#000000">Concat</text>
</g>
<!-- /outputs/28&#45;&gt;/outputs/29 -->
<g id="edge5" class="edge">
<title>/outputs/28&#45;&gt;/outputs/29</title>
<path fill="none" stroke="#000000" d="M418.4,-72C426.39,-72 435.31,-72 443.82,-72"/>
<polygon fill="#000000" stroke="#000000" points="443.92,-75.5 453.92,-72 443.92,-68.5 443.92,-75.5"/>
</g>
<!-- /outputs/30 -->
<g id="node8" class="node">
<title>/outputs/30</title>
<polygon fill="#e8e8e8" stroke="#000000" points="599,-90 544,-90 544,-54 599,-54 599,-90"/>
<text text-anchor="start" x="552.5" y="-69" font-family="Times" font-size="10.00" fill="#000000">Conv7x7</text>
</g>
<!-- /outputs/29&#45;&gt;/outputs/30 -->
<g id="edge6" class="edge">
<title>/outputs/29&#45;&gt;/outputs/30</title>
<path fill="none" stroke="#000000" d="M508.07,-72C516.12,-72 525.14,-72 533.76,-72"/>
<polygon fill="#000000" stroke="#000000" points="534,-75.5 544,-72 534,-68.5 534,-75.5"/>
</g>
<!-- 15056630427367473016 -->
<g id="node16" class="node">
<title>15056630427367473016</title>
<polygon fill="#e8e8e8" stroke="#000000" points="720,-90 635,-90 635,-54 720,-54 720,-90"/>
<text text-anchor="start" x="643.5" y="-69" font-family="Times" font-size="10.00" fill="#000000">Conv3x3 &gt; Relu</text>
</g>
<!-- /outputs/30&#45;&gt;15056630427367473016 -->
<g id="edge11" class="edge">
<title>/outputs/30&#45;&gt;15056630427367473016</title>
<path fill="none" stroke="#000000" d="M599.01,-72C606.8,-72 615.6,-72 624.4,-72"/>
<polygon fill="#000000" stroke="#000000" points="624.67,-75.5 634.67,-72 624.67,-68.5 624.67,-75.5"/>
</g>
<!-- /outputs/33 -->
<g id="node9" class="node">
<title>/outputs/33</title>
<polygon fill="#e8e8e8" stroke="#000000" points="826,-90 756,-90 756,-54 826,-54 826,-90"/>
<text text-anchor="start" x="764" y="-69" font-family="Times" font-size="10.00" fill="#000000">MaxPool3x3</text>
</g>
<!-- /outputs/34 -->
<g id="node10" class="node">
<title>/outputs/34</title>
<polygon fill="#e8e8e8" stroke="#000000" points="917,-90 862,-90 862,-54 917,-54 917,-90"/>
<text text-anchor="start" x="870.5" y="-69" font-family="Times" font-size="10.00" fill="#000000">Conv3x3</text>
</g>
<!-- /outputs/33&#45;&gt;/outputs/34 -->
<g id="edge7" class="edge">
<title>/outputs/33&#45;&gt;/outputs/34</title>
<path fill="none" stroke="#000000" d="M826.02,-72C834.26,-72 843.11,-72 851.48,-72"/>
<polygon fill="#000000" stroke="#000000" points="851.75,-75.5 861.75,-72 851.75,-68.5 851.75,-75.5"/>
</g>
<!-- 13390032009414882707 -->
<g id="node17" class="node">
<title>13390032009414882707</title>
<polygon fill="#e8e8e8" stroke="#000000" points="1038,-90 953,-90 953,-54 1038,-54 1038,-90"/>
<text text-anchor="start" x="961.5" y="-69" font-family="Times" font-size="10.00" fill="#000000">Conv3x3 &gt; Relu</text>
</g>
<!-- /outputs/34&#45;&gt;13390032009414882707 -->
<g id="edge13" class="edge">
<title>/outputs/34&#45;&gt;13390032009414882707</title>
<path fill="none" stroke="#000000" d="M917.01,-72C924.8,-72 933.6,-72 942.4,-72"/>
<polygon fill="#000000" stroke="#000000" points="942.67,-75.5 952.67,-72 942.67,-68.5 942.67,-75.5"/>
</g>
<!-- /outputs/37 -->
<g id="node11" class="node">
<title>/outputs/37</title>
<polygon fill="#e8e8e8" stroke="#000000" points="1144,-90 1074,-90 1074,-54 1144,-54 1144,-90"/>
<text text-anchor="start" x="1082" y="-69" font-family="Times" font-size="10.00" fill="#000000">MaxPool2x2</text>
</g>
<!-- /outputs/38 -->
<g id="node12" class="node">
<title>/outputs/38</title>
<polygon fill="#e8e8e8" stroke="#000000" points="1235,-90 1180,-90 1180,-54 1235,-54 1235,-90"/>
<text text-anchor="start" x="1188.5" y="-69" font-family="Times" font-size="10.00" fill="#000000">Conv3x3</text>
</g>
<!-- /outputs/37&#45;&gt;/outputs/38 -->
<g id="edge8" class="edge">
<title>/outputs/37&#45;&gt;/outputs/38</title>
<path fill="none" stroke="#000000" d="M1144.02,-72C1152.26,-72 1161.11,-72 1169.48,-72"/>
<polygon fill="#000000" stroke="#000000" points="1169.75,-75.5 1179.75,-72 1169.75,-68.5 1169.75,-75.5"/>
</g>
<!-- 9681738393037964856 -->
<g id="node18" class="node">
<title>9681738393037964856</title>
<polygon fill="#e8e8e8" stroke="#000000" points="1356,-90 1271,-90 1271,-54 1356,-54 1356,-90"/>
<text text-anchor="start" x="1279.5" y="-69" font-family="Times" font-size="10.00" fill="#000000">Conv3x3 &gt; Relu</text>
</g>
<!-- /outputs/38&#45;&gt;9681738393037964856 -->
<g id="edge15" class="edge">
<title>/outputs/38&#45;&gt;9681738393037964856</title>
<path fill="none" stroke="#000000" d="M1235.01,-72C1242.8,-72 1251.6,-72 1260.4,-72"/>
<polygon fill="#000000" stroke="#000000" points="1260.67,-75.5 1270.67,-72 1260.67,-68.5 1260.67,-75.5"/>
</g>
<!-- /outputs/41 -->
<g id="node13" class="node">
<title>/outputs/41</title>
<polygon fill="#e8e8e8" stroke="#000000" points="1462,-90 1392,-90 1392,-54 1462,-54 1462,-90"/>
<text text-anchor="start" x="1400" y="-69" font-family="Times" font-size="10.00" fill="#000000">MaxPool3x3</text>
</g>
<!-- /outputs/43 -->
<g id="node15" class="node">
<title>/outputs/43</title>
<polygon fill="#e8e8e8" stroke="#000000" points="1552,-63 1498,-63 1498,-27 1552,-27 1552,-63"/>
<text text-anchor="start" x="1508" y="-42" font-family="Times" font-size="10.00" fill="#000000">Reshape</text>
</g>
<!-- /outputs/41&#45;&gt;/outputs/43 -->
<g id="edge9" class="edge">
<title>/outputs/41&#45;&gt;/outputs/43</title>
<path fill="none" stroke="#000000" d="M1462.12,-62.4C1470.56,-60.03 1479.63,-57.48 1488.16,-55.08"/>
<polygon fill="#000000" stroke="#000000" points="1489.16,-58.43 1497.84,-52.36 1487.27,-51.7 1489.16,-58.43"/>
</g>
<!-- /outputs/42 -->
<g id="node14" class="node">
<title>/outputs/42</title>
<polygon fill="#e8e8e8" stroke="#000000" points="1454,-36 1400,-36 1400,0 1454,0 1454,-36"/>
<text text-anchor="start" x="1409" y="-15" font-family="Times" font-size="10.00" fill="#000000">Constant</text>
</g>
<!-- /outputs/42&#45;&gt;/outputs/43 -->
<g id="edge10" class="edge">
<title>/outputs/42&#45;&gt;/outputs/43</title>
<path fill="none" stroke="#000000" d="M1454.23,-25.38C1464.6,-28.29 1476.69,-31.7 1487.87,-34.84"/>
<polygon fill="#000000" stroke="#000000" points="1487.23,-38.29 1497.8,-37.63 1489.12,-31.55 1487.23,-38.29"/>
</g>
<!-- 8574973550217172647 -->
<g id="node20" class="node">
<title>8574973550217172647</title>
<polygon fill="#e8e8e8" stroke="#000000" points="1661,-67 1588,-67 1588,-23 1661,-23 1661,-67"/>
<text text-anchor="start" x="1596.5" y="-51" font-family="Times" font-size="10.00" fill="#000000">Linear &gt; Relu</text>
<text text-anchor="start" x="1646.5" y="-30" font-family="Times" font-size="10.00" fill="#000000">x3</text>
</g>
<!-- /outputs/43&#45;&gt;8574973550217172647 -->
<g id="edge19" class="edge">
<title>/outputs/43&#45;&gt;8574973550217172647</title>
<path fill="none" stroke="#000000" d="M1552.13,-45C1559.99,-45 1568.87,-45 1577.62,-45"/>
<polygon fill="#000000" stroke="#000000" points="1577.77,-48.5 1587.77,-45 1577.77,-41.5 1577.77,-48.5"/>
</g>
<!-- 15056630427367473016&#45;&gt;/outputs/33 -->
<g id="edge12" class="edge">
<title>15056630427367473016&#45;&gt;/outputs/33</title>
<path fill="none" stroke="#000000" d="M720.02,-72C728.38,-72 737.2,-72 745.66,-72"/>
<polygon fill="#000000" stroke="#000000" points="745.74,-75.5 755.74,-72 745.74,-68.5 745.74,-75.5"/>
</g>
<!-- 13390032009414882707&#45;&gt;/outputs/37 -->
<g id="edge14" class="edge">
<title>13390032009414882707&#45;&gt;/outputs/37</title>
<path fill="none" stroke="#000000" d="M1038.02,-72C1046.38,-72 1055.2,-72 1063.66,-72"/>
<polygon fill="#000000" stroke="#000000" points="1063.74,-75.5 1073.74,-72 1063.74,-68.5 1063.74,-75.5"/>
</g>
<!-- 9681738393037964856&#45;&gt;/outputs/41 -->
<g id="edge16" class="edge">
<title>9681738393037964856&#45;&gt;/outputs/41</title>
<path fill="none" stroke="#000000" d="M1356.02,-72C1364.38,-72 1373.2,-72 1381.66,-72"/>
<polygon fill="#000000" stroke="#000000" points="1381.74,-75.5 1391.74,-72 1381.74,-68.5 1381.74,-75.5"/>
</g>
<!-- 4206328852055713538&#45;&gt;/outputs/26 -->
<g id="edge18" class="edge">
<title>4206328852055713538&#45;&gt;/outputs/26</title>
<path fill="none" stroke="#000000" d="M238.4,-119.3C246.57,-116.61 255.7,-113.6 264.38,-110.74"/>
<polygon fill="#000000" stroke="#000000" points="265.52,-114.05 273.92,-107.59 263.33,-107.4 265.52,-114.05"/>
</g>
</g>
</svg>
